<svg xmlns="http://www.w3.org/2000/svg" width="705" height="1126" fill="none" viewBox="0 0 705 1126">
    <g opacity=".5">
        <mask id="0q1maccb1a" fill="#fff">
            <path fill-rule="evenodd" d="M171.462 316.516c-55.997-104.761-16.466-235.08 88.295-291.076 104.76-55.997 235.079-16.466 291.076 88.295l368.221 688.883c55.996 104.761 16.465 235.082-88.295 291.072-104.761 56-235.08 16.47-291.076-88.29L171.462 316.516zM-3.639 1126c122.254 0 221.361-99.11 221.361-221.361 0-122.254-99.107-221.361-221.361-221.361-122.254 0-221.361 99.107-221.361 221.361C-225 1026.89-125.893 1126-3.64 1126z" clip-rule="evenodd"/>
        </mask>
        <path fill="#F32D50" d="M259.757 25.44L254.1 14.857l5.657 10.583zm-88.295 291.076l10.583-5.657-10.583 5.657zm379.371-202.781l10.583-5.657-10.583 5.657zm368.221 688.883l-10.583 5.657 10.583-5.657zm-88.295 291.072l-5.657-10.58 5.657 10.58zm-291.076-88.29l-10.583 5.66 10.583-5.66zM254.1 14.857c-110.605 59.12-152.342 196.71-93.221 307.315l21.166-11.313c-52.873-98.916-15.547-221.964 83.369-274.836L254.1 14.857zm307.316 93.221C502.295-2.528 364.705-44.264 254.1 14.857l11.314 21.166C364.329-16.85 487.377 20.476 540.25 119.39l21.166-11.313zm368.221 688.884L561.416 108.078l-21.166 11.313 368.221 688.884 21.166-11.313zm-93.221 307.318c110.605-59.12 152.342-196.713 93.221-307.318l-21.166 11.313c52.872 98.916 15.547 221.965-83.369 274.835l11.314 21.17zM529.1 1011.06c59.12 110.6 196.71 152.34 307.316 93.22l-11.314-21.17c-98.916 52.87-221.964 15.55-274.836-83.367L529.1 1011.06zM160.879 322.172L529.1 1011.06l21.166-11.317-368.221-688.884-21.166 11.313zm44.843 582.467C205.722 1020.27 111.988 1114-3.639 1114v24c128.881 0 233.361-104.48 233.361-233.361h-24zM-3.639 695.278c115.627 0 209.361 93.734 209.361 209.361h24c0-128.882-104.48-233.361-233.361-233.361v24zM-213 904.639c0-115.627 93.734-209.361 209.36-209.361v-24C-132.52 671.278-237 775.757-237 904.639h24zM-3.64 1114C-119.265 1114-213 1020.27-213 904.639h-24C-237 1033.52-132.521 1138-3.64 1138v-24z" mask="url(#0q1maccb1a)"/>
    </g>
</svg>
