<svg xmlns="http://www.w3.org/2000/svg" width="222" height="52" fill="none" viewBox="0 0 222 52">
    <path fill="#fff" fill-rule="evenodd" d="M19.915 0C8.916 0 0 8.916 0 19.915v11.618c0 10.999 8.916 19.915 19.915 19.915h11.618c10.999 0 19.915-8.916 19.915-19.915V19.915C51.448 8.916 42.532 0 31.533 0H19.915zm4.265 11.758c-2.356 1.26-3.245 4.19-1.986 6.547l8.282 15.494c1.26 2.356 4.19 3.245 6.547 1.986 2.356-1.26 3.245-4.19 1.986-6.547l-8.282-15.494c-1.26-2.357-4.19-3.246-6.547-1.986zm-.945 19.775c0 2.75-2.23 4.978-4.98 4.978-2.749 0-4.978-2.229-4.978-4.978 0-2.75 2.229-4.98 4.979-4.98s4.979 2.23 4.979 4.98z" clip-rule="evenodd"/>
    <path fill="#fff" d="M215.906 38.457c.687.657 1.538.986 2.554.986 1.016 0 1.852-.33 2.509-.986.687-.687 1.031-1.539 1.031-2.554 0-1.046-.329-1.897-.986-2.555-.657-.657-1.509-.986-2.554-.986-1.046 0-1.897.33-2.554.986-.657.658-.986 1.509-.986 2.555 0 1.015.329 1.867.986 2.554zM77.61 16.44c1.942 0 3.675.344 5.199 1.03 1.523.658 2.703 1.57 3.54 2.734.866 1.165 1.299 2.465 1.299 3.899v15.19c0 .15-.06.284-.18.403-.089.09-.208.135-.358.135h-5.242c-.15 0-.284-.045-.404-.135-.09-.12-.134-.253-.134-.403v-1.479c0-.09-.03-.149-.09-.179s-.12 0-.179.09c-1.255 1.643-3.271 2.464-6.05 2.464-2.33 0-4.211-.567-5.645-1.703-1.434-1.135-2.151-2.807-2.151-5.018 0-2.3.806-4.078 2.42-5.333 1.613-1.284 3.913-1.926 6.9-1.926h4.57c.15 0 .225-.075.225-.224v-.986c0-.986-.299-1.748-.896-2.285-.598-.568-1.494-.852-2.689-.852-.926 0-1.703.165-2.33.493-.598.329-.986.792-1.165 1.39-.09.328-.284.477-.583.447l-5.421-.717c-.359-.06-.523-.194-.493-.403.12-1.255.612-2.39 1.478-3.405.897-1.016 2.062-1.808 3.495-2.375 1.464-.568 3.092-.852 4.885-.852zm-.895 19.044c1.284 0 2.374-.343 3.27-1.03.897-.687 1.345-1.569 1.345-2.644v-1.613c0-.15-.075-.224-.224-.224h-3.227c-1.344 0-2.404.254-3.181.762-.747.507-1.12 1.224-1.12 2.15 0 .807.284 1.45.851 1.927.568.448 1.33.672 2.285.672zM92.636 39.83c-.15 0-.284-.044-.403-.134-.09-.12-.135-.253-.135-.403V9.002c0-.15.045-.269.135-.359.12-.12.254-.179.403-.179h5.243c.15 0 .269.06.358.18.12.089.18.208.18.358v30.291c0 .15-.06.284-.18.403-.09.09-.209.135-.358.135h-5.243zM113.21 40.19c-2.509 0-4.66-.658-6.452-1.972-1.793-1.315-3.018-3.107-3.675-5.378-.418-1.404-.627-2.927-.627-4.57 0-1.763.209-3.346.627-4.75.687-2.21 1.927-3.943 3.719-5.198 1.793-1.254 3.944-1.882 6.453-1.882 2.45 0 4.541.628 6.273 1.882 1.733 1.225 2.958 2.943 3.675 5.153.478 1.494.717 3.062.717 4.705 0 1.614-.209 3.122-.628 4.526-.657 2.33-1.882 4.167-3.674 5.512-1.763 1.314-3.899 1.971-6.408 1.971zm0-5.423c.986 0 1.822-.298 2.509-.896.688-.597 1.18-1.419 1.479-2.464.239-.956.359-2.002.359-3.137 0-1.255-.12-2.315-.359-3.181-.328-1.016-.836-1.808-1.523-2.375-.687-.568-1.524-.852-2.51-.852-1.015 0-1.867.284-2.554.852-.657.567-1.135 1.359-1.434 2.375-.239.716-.358 1.777-.358 3.181 0 1.344.104 2.39.313 3.137.299 1.045.792 1.867 1.479 2.464.717.598 1.583.896 2.599.896zM128.698 39.83c-.149 0-.284-.044-.403-.134-.09-.12-.135-.253-.135-.403V17.292c0-.15.045-.27.135-.359.119-.12.254-.18.403-.18h5.243c.149 0 .269.06.358.18.12.09.18.21.18.359v22.001c0 .15-.06.284-.18.403-.089.09-.209.135-.358.135h-5.243zM159.791 25.94c.179 1.135.239 2.405.179 3.809-.03.358-.224.537-.583.537h-13.846c-.179 0-.239.075-.179.224.09.598.254 1.195.493 1.793.777 1.673 2.36 2.51 4.75 2.51 1.912-.03 3.42-.807 4.526-2.33.119-.18.253-.27.403-.27.089 0 .194.06.314.18l3.226 3.18c.149.15.224.285.224.404 0 .06-.06.18-.179.359-.986 1.224-2.256 2.18-3.809 2.867-1.554.658-3.256.986-5.108.986-2.57 0-4.75-.582-6.543-1.747-1.762-1.165-3.032-2.793-3.809-4.885-.627-1.493-.941-3.45-.941-5.87 0-1.643.225-3.091.673-4.346.687-2.121 1.882-3.809 3.584-5.064 1.733-1.254 3.779-1.882 6.139-1.882 2.988 0 5.377.867 7.17 2.6 1.822 1.732 2.927 4.047 3.316 6.945zm-10.441-4.078c-1.882 0-3.122.881-3.719 2.644-.12.388-.224.866-.314 1.434 0 .15.075.224.224.224h7.752c.18 0 .239-.075.18-.224-.15-.867-.224-1.285-.224-1.255-.269-.896-.747-1.583-1.434-2.061-.658-.508-1.479-.762-2.465-.762zM164.402 39.83c-.15 0-.284-.044-.404-.134-.089-.12-.134-.253-.134-.403V9.002c0-.15.045-.269.134-.359.12-.12.254-.179.404-.179h5.242c.15 0 .269.06.359.18.119.089.179.208.179.358v30.291c0 .15-.06.284-.179.403-.09.09-.209.135-.359.135h-5.242zM188.023 21.325c0 .149-.06.283-.18.403-.089.09-.209.134-.358.134h-4.302c-.149 0-.224.075-.224.224v9.5c0 .986.194 1.718.583 2.196.418.478 1.075.717 1.971.717h1.479c.149 0 .269.06.358.179.12.09.18.209.18.358v4.257c0 .329-.18.523-.538.583-1.255.06-2.151.09-2.689.09-2.479 0-4.331-.404-5.556-1.21-1.225-.837-1.852-2.39-1.882-4.66v-12.01c0-.15-.075-.224-.224-.224h-2.554c-.15 0-.284-.045-.404-.134-.089-.12-.134-.254-.134-.404v-3.988c0-.149.045-.268.134-.358.12-.12.254-.18.404-.18h2.554c.149 0 .224-.074.224-.223v-5.333c0-.15.045-.269.134-.358.12-.12.254-.18.404-.18h5.018c.15 0 .269.06.359.18.119.09.179.209.179.358v5.333c0 .149.075.224.224.224h4.302c.149 0 .269.06.358.179.12.09.18.209.18.358v3.989zM201.012 40.145c-2.001 0-3.749-.284-5.243-.852-1.493-.568-2.658-1.36-3.495-2.375-.806-1.015-1.21-2.166-1.21-3.45v-.448c0-.15.045-.27.135-.359.119-.12.254-.179.403-.179h4.974c.149 0 .269.06.358.18.12.089.18.208.18.358v.045c0 .657.358 1.224 1.075 1.702.747.448 1.673.672 2.778.672 1.016 0 1.837-.194 2.465-.582.627-.418.941-.926.941-1.524 0-.537-.269-.94-.807-1.21-.537-.268-1.419-.552-2.644-.85-1.404-.36-2.509-.703-3.315-1.031-1.912-.658-3.436-1.464-4.571-2.42-1.135-.956-1.703-2.33-1.703-4.123 0-2.21.852-3.958 2.554-5.242 1.733-1.315 4.018-1.972 6.856-1.972 1.912 0 3.585.314 5.019.941 1.434.598 2.539 1.449 3.316 2.554.806 1.105 1.21 2.36 1.21 3.764 0 .15-.06.284-.18.404-.089.09-.209.134-.358.134h-4.795c-.149 0-.283-.045-.403-.134-.09-.12-.134-.255-.134-.404 0-.657-.344-1.21-1.031-1.658-.657-.448-1.538-.672-2.644-.672-.986 0-1.792.18-2.419.538-.628.358-.941.851-.941 1.478 0 .598.298 1.046.896 1.345.627.299 1.658.612 3.092.94.328.09.702.195 1.12.314.418.09.866.21 1.344.359 2.121.627 3.794 1.434 5.019 2.42s1.837 2.42 1.837 4.301c0 2.211-.881 3.944-2.644 5.198-1.732 1.225-4.077 1.837-7.035 1.837zM128.777 12.732c.687.658 1.538.986 2.554.986 1.016 0 1.852-.328 2.509-.986.687-.686 1.031-1.538 1.031-2.554 0-1.045-.329-1.897-.986-2.554-.657-.657-1.508-.986-2.554-.986-1.046 0-1.897.329-2.554.986-.657.657-.986 1.509-.986 2.554 0 1.016.329 1.867.986 2.554z"/>
</svg>
